<?xml version="1.0" encoding="UTF-8" standalone="no"?>
<svg
   version="1.1"
   preserveAspectRatio="xMidYMid"
   viewBox="0 0 160000 160000"
   id="svg1"
   width="160000"
   height="160000"
   xmlns="http://www.w3.org/2000/svg"
   xmlns:svg="http://www.w3.org/2000/svg">
  <defs
     id="defs1" />
  <circle
     r="170"
     cx="200"
     cy="200"
     stroke="#48cc18"
     stroke-width="20"
     fill="#121212"
     id="circle1"
     class="border"/>
  <path
     d="m 81.3,179.6 c -2.39,0.26 -4.27,2.13 -4.56,4.52 -0.36,3.09 -0.14,1.2 -0.3,2.52 -0.97,8.2 1.83,16.39 7.6,22.29 17.67,18.02 59.47,60.68 76.62,78.18 7.77,7.93 16.46,14.91 25.88,20.79 5.45,3.4 8.64,5.39 14.35,8.95 8.43,5.26 18.18,8.06 28.13,8.06 4.51,0 3.04,0 7.6,0 9.78,0 19.34,-2.8 27.58,-8.05 5.9,-3.76 5.43,-3.46 9.94,-6.34 12.86,-8.2 23.67,-19.24 31.6,-32.27 4.09,-6.71 7.26,-11.93 12.09,-19.86 5.46,-8.96 8.34,-19.25 8.34,-29.75 0,-1.63 0,5.09 0,2.35 0,-6.95 -1.25,-13.83 -3.69,-20.33 -7.48,-19.91 -27.32,-72.69 -35.07,-93.32 -1.51,-4.01 -4.47,-7.31 -8.31,-9.23 0,0 4.36,2.18 3.96,1.98 -2.26,-1.12 -4.99,-0.37 -6.36,1.74 -3.63,5.62 -4.41,6.84 -6.12,9.47 -7.6,11.78 -9.43,26.38 -4.97,39.67 1.57,4.67 2.79,8.32 5.26,15.66 1.49,4.43 -0.52,9.28 -4.7,11.37 0,0 5.33,-2.66 4.84,-2.41 -2.9,1.44 -6.39,0.89 -8.7,-1.37 -20.04,-19.67 -72.63,-71.25 -91.75,-90 -5.43,-5.33 -12.74,-8.31 -20.34,-8.31 -1.21,0 3.69,0 1.64,0 -4.49,0 -8.37,3.11 -9.36,7.49 -0.39,1.75 0.88,-3.89 0.67,-2.99 -1.65,7.36 0.4,15.05 5.48,20.62 10.24,11.22 37.09,40.61 48.39,52.99 1.6,1.75 1.59,4.44 -0.02,6.18 -0.29,0.31 2.85,-3.08 2.85,-3.08 -2.34,2.53 -6.33,2.58 -8.74,0.12 -14.63,-14.87 -50.65,-51.5 -64.42,-65.51 -5.48,-5.57 -13.28,-8.21 -21.02,-7.11 -1.25,0.18 0.6,-0.08 -2.32,0.34 -2.34,0.33 -4.18,2.15 -4.53,4.48 -0.41,2.73 -0.12,0.82 -0.3,2 -1.11,7.36 1.18,14.83 6.23,20.31 13.25,14.38 48.35,52.46 62.44,67.74 2.19,2.37 2.26,6 0.18,8.46 0,0 3.65,-4.31 3.65,-4.31 -1.96,2.31 -5.48,2.44 -7.6,0.28 -12.47,-12.72 -41.81,-42.65 -53.25,-54.32 -5.77,-5.89 -13.83,-8.95 -22.06,-8.4 -1.32,0.09 0.81,-0.05 -2.23,0.15 -2.52,0.18 -4.57,2.13 -4.84,4.65 -0.3,2.78 -0.31,2.88 -0.51,4.68 -0.64,5.84 1.31,11.67 5.33,15.95 12.19,12.97 43.77,46.57 56.3,59.9 2.57,2.73 2.43,7.03 -0.31,9.59 0,0 4.97,-4.64 4.97,-4.64 -2.76,2.58 -7.08,2.47 -9.7,-0.25 -8.34,-8.63 -25.64,-26.56 -33.24,-34.43 -5.32,-5.51 -12.91,-8.26 -20.53,-7.42 -1.23,0.13 0.76,-0.09 -2.07,0.22 z"
     fill="#48cc18"
     id="path1" />
  <g
     id="g3"
     class="eye">
    <ellipse
       style="fill:#f82d2d"
       id="path2"
       cx="200"
       cy="200"
       rx="145"
       ry="70" />
    <circle
       style="fill:#121212"
       id="path3"
       cx="200"
       cy="200"
       r="58" />
    <circle
       style="fill:#f82d2d"
       id="path4"
       cx="200"
       cy="200"
       r="20" />
  </g>
</svg>
